<svg xmlns="http://www.w3.org/2000/svg" width="828" height="178" viewBox="0 0 828 178" fill="none" role="img" aria-label="Unified GitHub fun zone"><rect width="828" height="178" fill="#ffffff"/>
    <defs>
      <clipPath id="board-clip">
        <rect x="18" y="58" width="792" height="102" rx="6"/>
      </clipPath>
    </defs>
    <text x="18" y="32" fill="#24292f" font-family="system-ui,Segoe UI,Arial" font-size="14" font-weight="700">Fun Zone — Breakout × Pac-Man</text><g><rect x="18" y="58" width="12" height="12" rx="3" fill="#ebedf0"/><rect x="33" y="58" width="12" height="12" rx="3" fill="#ebedf0"/><rect x="48" y="58" width="12" height="12" rx="3" fill="#ebedf0"/><rect x="63" y="58" width="12" height="12" rx="3" fill="#40c463"/><rect x="78" y="58" width="12" height="12" rx="3" fill="#ebedf0"/><rect x="93" y="58" width="12" height="12" rx="3" fill="#ebedf0"/><rect x="108" y="58" width="12" height="12" rx="3" fill="#216e39"/><rect x="123" y="58" width="12" height="12" rx="3" fill="#9be9a8"/><rect x="138" y="58" width="12" height="12" rx="3" fill="#ebedf0"/><rect x="153" y="58" width="12" height="12" rx="3" fill="#ebedf0"/><rect x="168" y="58" width="12" height="12" rx="3" fill="#ebedf0"/><rect x="183" y="58" width="12" height="12" rx="3" fill="#ebedf0"/><rect x="198" y="58" width="12" height="12" rx="3" fill="#ebedf0"/><rect x="213" y="58" width="12" height="12" rx="3" fill="#ebedf0"/><rect x="228" y="58" width="12" height="12" rx="3" fill="#ebedf0"/><rect x="243" y="58" width="12" height="12" rx="3" fill="#ebedf0"/><rect x="258" y="58" width="12" height="12" rx="3" fill="#ebedf0"/><rect x="273" y="58" width="12" height="12" rx="3" fill="#ebedf0"/><rect x="288" y="58" width="12" height="12" rx="3" fill="#ebedf0"/><rect x="303" y="58" width="12" height="12" rx="3" fill="#ebedf0"/><rect x="318" y="58" width="12" height="12" rx="3" fill="#ebedf0"/><rect x="333" y="58" width="12" height="12" rx="3" fill="#ebedf0"/><rect x="348" y="58" width="12" height="12" rx="3" fill="#ebedf0"/><rect x="363" y="58" width="12" height="12" rx="3" fill="#ebedf0"/><rect x="378" y="58" width="12" height="12" rx="3" fill="#ebedf0"/><rect x="393" y="58" width="12" height="12" rx="3" fill="#ebedf0"/><rect x="408" y="58" width="12" height="12" rx="3" fill="#ebedf0"/><rect x="423" y="58" width="12" height="12" rx="3" fill="#ebedf0"/><rect x="438" y="58" width="12" height="12" rx="3" fill="#ebedf0"/><rect x="453" y="58" width="12" height="12" rx="3" fill="#ebedf0"/><rect x="468" y="58" width="12" height="12" rx="3" fill="#ebedf0"/><rect x="483" y="58" width="12" height="12" rx="3" fill="#ebedf0"/><rect x="498" y="58" width="12" height="12" rx="3" fill="#ebedf0"/><rect x="513" y="58" width="12" height="12" rx="3" fill="#ebedf0"/><rect x="528" y="58" width="12" height="12" rx="3" fill="#ebedf0"/><rect x="543" y="58" width="12" height="12" rx="3" fill="#ebedf0"/><rect x="558" y="58" width="12" height="12" rx="3" fill="#ebedf0"/><rect x="573" y="58" width="12" height="12" rx="3" fill="#ebedf0"/><rect x="588" y="58" width="12" height="12" rx="3" fill="#ebedf0"/><rect x="603" y="58" width="12" height="12" rx="3" fill="#ebedf0"/><rect x="618" y="58" width="12" height="12" rx="3" fill="#ebedf0"/><rect x="633" y="58" width="12" height="12" rx="3" fill="#ebedf0"/><rect x="648" y="58" width="12" height="12" rx="3" fill="#ebedf0"/><rect x="663" y="58" width="12" height="12" rx="3" fill="#ebedf0"/><rect x="678" y="58" width="12" height="12" rx="3" fill="#ebedf0"/><rect x="693" y="58" width="12" height="12" rx="3" fill="#ebedf0"/><rect x="708" y="58" width="12" height="12" rx="3" fill="#ebedf0"/><rect x="723" y="58" width="12" height="12" rx="3" fill="#ebedf0"/><rect x="738" y="58" width="12" height="12" rx="3" fill="#ebedf0"/><rect x="753" y="58" width="12" height="12" rx="3" fill="#ebedf0"/><rect x="768" y="58" width="12" height="12" rx="3" fill="#ebedf0"/><rect x="783" y="58" width="12" height="12" rx="3" fill="#ebedf0"/><rect x="798" y="58" width="12" height="12" rx="3" fill="#216e39"/><rect x="18" y="73" width="12" height="12" rx="3" fill="#ebedf0"/><rect x="33" y="73" width="12" height="12" rx="3" fill="#ebedf0"/><rect x="48" y="73" width="12" height="12" rx="3" fill="#ebedf0"/><rect x="63" y="73" width="12" height="12" rx="3" fill="#ebedf0"/><rect x="78" y="73" width="12" height="12" rx="3" fill="#ebedf0"/><rect x="93" y="73" width="12" height="12" rx="3" fill="#ebedf0"/><rect x="108" y="73" width="12" height="12" rx="3" fill="#30a14e"/><rect x="123" y="73" width="12" height="12" rx="3" fill="#ebedf0"/><rect x="138" y="73" width="12" height="12" rx="3" fill="#ebedf0"/><rect x="153" y="73" width="12" height="12" rx="3" fill="#ebedf0"/><rect x="168" y="73" width="12" height="12" rx="3" fill="#ebedf0"/><rect x="183" y="73" width="12" height="12" rx="3" fill="#ebedf0"/><rect x="198" y="73" width="12" height="12" rx="3" fill="#ebedf0"/><rect x="213" y="73" width="12" height="12" rx="3" fill="#ebedf0"/><rect x="228" y="73" width="12" height="12" rx="3" fill="#ebedf0"/><rect x="243" y="73" width="12" height="12" rx="3" fill="#ebedf0"/><rect x="258" y="73" width="12" height="12" rx="3" fill="#ebedf0"/><rect x="273" y="73" width="12" height="12" rx="3" fill="#ebedf0"/><rect x="288" y="73" width="12" height="12" rx="3" fill="#ebedf0"/><rect x="303" y="73" width="12" height="12" rx="3" fill="#ebedf0"/><rect x="318" y="73" width="12" height="12" rx="3" fill="#ebedf0"/><rect x="333" y="73" width="12" height="12" rx="3" fill="#ebedf0"/><rect x="348" y="73" width="12" height="12" rx="3" fill="#ebedf0"/><rect x="363" y="73" width="12" height="12" rx="3" fill="#ebedf0"/><rect x="378" y="73" width="12" height="12" rx="3" fill="#ebedf0"/><rect x="393" y="73" width="12" height="12" rx="3" fill="#ebedf0"/><rect x="408" y="73" width="12" height="12" rx="3" fill="#ebedf0"/><rect x="423" y="73" width="12" height="12" rx="3" fill="#ebedf0"/><rect x="438" y="73" width="12" height="12" rx="3" fill="#ebedf0"/><rect x="453" y="73" width="12" height="12" rx="3" fill="#ebedf0"/><rect x="468" y="73" width="12" height="12" rx="3" fill="#ebedf0"/><rect x="483" y="73" width="12" height="12" rx="3" fill="#ebedf0"/><rect x="498" y="73" width="12" height="12" rx="3" fill="#ebedf0"/><rect x="513" y="73" width="12" height="12" rx="3" fill="#ebedf0"/><rect x="528" y="73" width="12" height="12" rx="3" fill="#ebedf0"/><rect x="543" y="73" width="12" height="12" rx="3" fill="#ebedf0"/><rect x="558" y="73" width="12" height="12" rx="3" fill="#ebedf0"/><rect x="573" y="73" width="12" height="12" rx="3" fill="#ebedf0"/><rect x="588" y="73" width="12" height="12" rx="3" fill="#ebedf0"/><rect x="603" y="73" width="12" height="12" rx="3" fill="#ebedf0"/><rect x="618" y="73" width="12" height="12" rx="3" fill="#ebedf0"/><rect x="633" y="73" width="12" height="12" rx="3" fill="#ebedf0"/><rect x="648" y="73" width="12" height="12" rx="3" fill="#ebedf0"/><rect x="663" y="73" width="12" height="12" rx="3" fill="#ebedf0"/><rect x="678" y="73" width="12" height="12" rx="3" fill="#ebedf0"/><rect x="693" y="73" width="12" height="12" rx="3" fill="#ebedf0"/><rect x="708" y="73" width="12" height="12" rx="3" fill="#ebedf0"/><rect x="723" y="73" width="12" height="12" rx="3" fill="#ebedf0"/><rect x="738" y="73" width="12" height="12" rx="3" fill="#ebedf0"/><rect x="753" y="73" width="12" height="12" rx="3" fill="#ebedf0"/><rect x="768" y="73" width="12" height="12" rx="3" fill="#ebedf0"/><rect x="783" y="73" width="12" height="12" rx="3" fill="#ebedf0"/><rect x="798" y="73" width="12" height="12" rx="3" fill="#ebedf0"/><rect x="18" y="88" width="12" height="12" rx="3" fill="#ebedf0"/><rect x="33" y="88" width="12" height="12" rx="3" fill="#ebedf0"/><rect x="48" y="88" width="12" height="12" rx="3" fill="#ebedf0"/><rect x="63" y="88" width="12" height="12" rx="3" fill="#ebedf0"/><rect x="78" y="88" width="12" height="12" rx="3" fill="#ebedf0"/><rect x="93" y="88" width="12" height="12" rx="3" fill="#ebedf0"/><rect x="108" y="88" width="12" height="12" rx="3" fill="#ebedf0"/><rect x="123" y="88" width="12" height="12" rx="3" fill="#ebedf0"/><rect x="138" y="88" width="12" height="12" rx="3" fill="#40c463"/><rect x="153" y="88" width="12" height="12" rx="3" fill="#ebedf0"/><rect x="168" y="88" width="12" height="12" rx="3" fill="#ebedf0"/><rect x="183" y="88" width="12" height="12" rx="3" fill="#ebedf0"/><rect x="198" y="88" width="12" height="12" rx="3" fill="#ebedf0"/><rect x="213" y="88" width="12" height="12" rx="3" fill="#ebedf0"/><rect x="228" y="88" width="12" height="12" rx="3" fill="#ebedf0"/><rect x="243" y="88" width="12" height="12" rx="3" fill="#ebedf0"/><rect x="258" y="88" width="12" height="12" rx="3" fill="#ebedf0"/><rect x="273" y="88" width="12" height="12" rx="3" fill="#ebedf0"/><rect x="288" y="88" width="12" height="12" rx="3" fill="#ebedf0"/><rect x="303" y="88" width="12" height="12" rx="3" fill="#ebedf0"/><rect x="318" y="88" width="12" height="12" rx="3" fill="#ebedf0"/><rect x="333" y="88" width="12" height="12" rx="3" fill="#ebedf0"/><rect x="348" y="88" width="12" height="12" rx="3" fill="#ebedf0"/><rect x="363" y="88" width="12" height="12" rx="3" fill="#ebedf0"/><rect x="378" y="88" width="12" height="12" rx="3" fill="#ebedf0"/><rect x="393" y="88" width="12" height="12" rx="3" fill="#ebedf0"/><rect x="408" y="88" width="12" height="12" rx="3" fill="#ebedf0"/><rect x="423" y="88" width="12" height="12" rx="3" fill="#ebedf0"/><rect x="438" y="88" width="12" height="12" rx="3" fill="#ebedf0"/><rect x="453" y="88" width="12" height="12" rx="3" fill="#ebedf0"/><rect x="468" y="88" width="12" height="12" rx="3" fill="#ebedf0"/><rect x="483" y="88" width="12" height="12" rx="3" fill="#ebedf0"/><rect x="498" y="88" width="12" height="12" rx="3" fill="#ebedf0"/><rect x="513" y="88" width="12" height="12" rx="3" fill="#ebedf0"/><rect x="528" y="88" width="12" height="12" rx="3" fill="#ebedf0"/><rect x="543" y="88" width="12" height="12" rx="3" fill="#ebedf0"/><rect x="558" y="88" width="12" height="12" rx="3" fill="#ebedf0"/><rect x="573" y="88" width="12" height="12" rx="3" fill="#ebedf0"/><rect x="588" y="88" width="12" height="12" rx="3" fill="#ebedf0"/><rect x="603" y="88" width="12" height="12" rx="3" fill="#ebedf0"/><rect x="618" y="88" width="12" height="12" rx="3" fill="#ebedf0"/><rect x="633" y="88" width="12" height="12" rx="3" fill="#ebedf0"/><rect x="648" y="88" width="12" height="12" rx="3" fill="#ebedf0"/><rect x="663" y="88" width="12" height="12" rx="3" fill="#ebedf0"/><rect x="678" y="88" width="12" height="12" rx="3" fill="#ebedf0"/><rect x="693" y="88" width="12" height="12" rx="3" fill="#ebedf0"/><rect x="708" y="88" width="12" height="12" rx="3" fill="#ebedf0"/><rect x="723" y="88" width="12" height="12" rx="3" fill="#ebedf0"/><rect x="738" y="88" width="12" height="12" rx="3" fill="#ebedf0"/><rect x="753" y="88" width="12" height="12" rx="3" fill="#9be9a8"/><rect x="768" y="88" width="12" height="12" rx="3" fill="#ebedf0"/><rect x="783" y="88" width="12" height="12" rx="3" fill="#ebedf0"/><rect x="798" y="88" width="12" height="12" rx="3" fill="#ebedf0"/><rect x="18" y="103" width="12" height="12" rx="3" fill="#ebedf0"/><rect x="33" y="103" width="12" height="12" rx="3" fill="#ebedf0"/><rect x="48" y="103" width="12" height="12" rx="3" fill="#ebedf0"/><rect x="63" y="103" width="12" height="12" rx="3" fill="#ebedf0"/><rect x="78" y="103" width="12" height="12" rx="3" fill="#ebedf0"/><rect x="93" y="103" width="12" height="12" rx="3" fill="#ebedf0"/><rect x="108" y="103" width="12" height="12" rx="3" fill="#ebedf0"/><rect x="123" y="103" width="12" height="12" rx="3" fill="#ebedf0"/><rect x="138" y="103" width="12" height="12" rx="3" fill="#ebedf0"/><rect x="153" y="103" width="12" height="12" rx="3" fill="#ebedf0"/><rect x="168" y="103" width="12" height="12" rx="3" fill="#ebedf0"/><rect x="183" y="103" width="12" height="12" rx="3" fill="#ebedf0"/><rect x="198" y="103" width="12" height="12" rx="3" fill="#ebedf0"/><rect x="213" y="103" width="12" height="12" rx="3" fill="#ebedf0"/><rect x="228" y="103" width="12" height="12" rx="3" fill="#ebedf0"/><rect x="243" y="103" width="12" height="12" rx="3" fill="#ebedf0"/><rect x="258" y="103" width="12" height="12" rx="3" fill="#ebedf0"/><rect x="273" y="103" width="12" height="12" rx="3" fill="#ebedf0"/><rect x="288" y="103" width="12" height="12" rx="3" fill="#ebedf0"/><rect x="303" y="103" width="12" height="12" rx="3" fill="#ebedf0"/><rect x="318" y="103" width="12" height="12" rx="3" fill="#ebedf0"/><rect x="333" y="103" width="12" height="12" rx="3" fill="#ebedf0"/><rect x="348" y="103" width="12" height="12" rx="3" fill="#ebedf0"/><rect x="363" y="103" width="12" height="12" rx="3" fill="#ebedf0"/><rect x="378" y="103" width="12" height="12" rx="3" fill="#ebedf0"/><rect x="393" y="103" width="12" height="12" rx="3" fill="#ebedf0"/><rect x="408" y="103" width="12" height="12" rx="3" fill="#ebedf0"/><rect x="423" y="103" width="12" height="12" rx="3" fill="#ebedf0"/><rect x="438" y="103" width="12" height="12" rx="3" fill="#ebedf0"/><rect x="453" y="103" width="12" height="12" rx="3" fill="#ebedf0"/><rect x="468" y="103" width="12" height="12" rx="3" fill="#ebedf0"/><rect x="483" y="103" width="12" height="12" rx="3" fill="#ebedf0"/><rect x="498" y="103" width="12" height="12" rx="3" fill="#ebedf0"/><rect x="513" y="103" width="12" height="12" rx="3" fill="#ebedf0"/><rect x="528" y="103" width="12" height="12" rx="3" fill="#9be9a8"/><rect x="543" y="103" width="12" height="12" rx="3" fill="#ebedf0"/><rect x="558" y="103" width="12" height="12" rx="3" fill="#ebedf0"/><rect x="573" y="103" width="12" height="12" rx="3" fill="#ebedf0"/><rect x="588" y="103" width="12" height="12" rx="3" fill="#ebedf0"/><rect x="603" y="103" width="12" height="12" rx="3" fill="#ebedf0"/><rect x="618" y="103" width="12" height="12" rx="3" fill="#ebedf0"/><rect x="633" y="103" width="12" height="12" rx="3" fill="#ebedf0"/><rect x="648" y="103" width="12" height="12" rx="3" fill="#ebedf0"/><rect x="663" y="103" width="12" height="12" rx="3" fill="#ebedf0"/><rect x="678" y="103" width="12" height="12" rx="3" fill="#ebedf0"/><rect x="693" y="103" width="12" height="12" rx="3" fill="#ebedf0"/><rect x="708" y="103" width="12" height="12" rx="3" fill="#ebedf0"/><rect x="723" y="103" width="12" height="12" rx="3" fill="#ebedf0"/><rect x="738" y="103" width="12" height="12" rx="3" fill="#ebedf0"/><rect x="753" y="103" width="12" height="12" rx="3" fill="#ebedf0"/><rect x="768" y="103" width="12" height="12" rx="3" fill="#9be9a8"/><rect x="783" y="103" width="12" height="12" rx="3" fill="#9be9a8"/><rect x="798" y="103" width="12" height="12" rx="3" fill="#ebedf0"/><rect x="18" y="118" width="12" height="12" rx="3" fill="#ebedf0"/><rect x="33" y="118" width="12" height="12" rx="3" fill="#ebedf0"/><rect x="48" y="118" width="12" height="12" rx="3" fill="#ebedf0"/><rect x="63" y="118" width="12" height="12" rx="3" fill="#ebedf0"/><rect x="78" y="118" width="12" height="12" rx="3" fill="#ebedf0"/><rect x="93" y="118" width="12" height="12" rx="3" fill="#9be9a8"/><rect x="108" y="118" width="12" height="12" rx="3" fill="#ebedf0"/><rect x="123" y="118" width="12" height="12" rx="3" fill="#40c463"/><rect x="138" y="118" width="12" height="12" rx="3" fill="#ebedf0"/><rect x="153" y="118" width="12" height="12" rx="3" fill="#ebedf0"/><rect x="168" y="118" width="12" height="12" rx="3" fill="#ebedf0"/><rect x="183" y="118" width="12" height="12" rx="3" fill="#ebedf0"/><rect x="198" y="118" width="12" height="12" rx="3" fill="#ebedf0"/><rect x="213" y="118" width="12" height="12" rx="3" fill="#ebedf0"/><rect x="228" y="118" width="12" height="12" rx="3" fill="#ebedf0"/><rect x="243" y="118" width="12" height="12" rx="3" fill="#ebedf0"/><rect x="258" y="118" width="12" height="12" rx="3" fill="#ebedf0"/><rect x="273" y="118" width="12" height="12" rx="3" fill="#ebedf0"/><rect x="288" y="118" width="12" height="12" rx="3" fill="#ebedf0"/><rect x="303" y="118" width="12" height="12" rx="3" fill="#ebedf0"/><rect x="318" y="118" width="12" height="12" rx="3" fill="#ebedf0"/><rect x="333" y="118" width="12" height="12" rx="3" fill="#ebedf0"/><rect x="348" y="118" width="12" height="12" rx="3" fill="#ebedf0"/><rect x="363" y="118" width="12" height="12" rx="3" fill="#ebedf0"/><rect x="378" y="118" width="12" height="12" rx="3" fill="#9be9a8"/><rect x="393" y="118" width="12" height="12" rx="3" fill="#ebedf0"/><rect x="408" y="118" width="12" height="12" rx="3" fill="#ebedf0"/><rect x="423" y="118" width="12" height="12" rx="3" fill="#ebedf0"/><rect x="438" y="118" width="12" height="12" rx="3" fill="#ebedf0"/><rect x="453" y="118" width="12" height="12" rx="3" fill="#ebedf0"/><rect x="468" y="118" width="12" height="12" rx="3" fill="#ebedf0"/><rect x="483" y="118" width="12" height="12" rx="3" fill="#ebedf0"/><rect x="498" y="118" width="12" height="12" rx="3" fill="#ebedf0"/><rect x="513" y="118" width="12" height="12" rx="3" fill="#ebedf0"/><rect x="528" y="118" width="12" height="12" rx="3" fill="#ebedf0"/><rect x="543" y="118" width="12" height="12" rx="3" fill="#ebedf0"/><rect x="558" y="118" width="12" height="12" rx="3" fill="#ebedf0"/><rect x="573" y="118" width="12" height="12" rx="3" fill="#ebedf0"/><rect x="588" y="118" width="12" height="12" rx="3" fill="#ebedf0"/><rect x="603" y="118" width="12" height="12" rx="3" fill="#ebedf0"/><rect x="618" y="118" width="12" height="12" rx="3" fill="#ebedf0"/><rect x="633" y="118" width="12" height="12" rx="3" fill="#ebedf0"/><rect x="648" y="118" width="12" height="12" rx="3" fill="#ebedf0"/><rect x="663" y="118" width="12" height="12" rx="3" fill="#ebedf0"/><rect x="678" y="118" width="12" height="12" rx="3" fill="#ebedf0"/><rect x="693" y="118" width="12" height="12" rx="3" fill="#ebedf0"/><rect x="708" y="118" width="12" height="12" rx="3" fill="#ebedf0"/><rect x="723" y="118" width="12" height="12" rx="3" fill="#ebedf0"/><rect x="738" y="118" width="12" height="12" rx="3" fill="#ebedf0"/><rect x="753" y="118" width="12" height="12" rx="3" fill="#ebedf0"/><rect x="768" y="118" width="12" height="12" rx="3" fill="#ebedf0"/><rect x="783" y="118" width="12" height="12" rx="3" fill="#9be9a8"/><rect x="798" y="118" width="12" height="12" rx="3" fill="#ebedf0"/><rect x="18" y="133" width="12" height="12" rx="3" fill="#ebedf0"/><rect x="33" y="133" width="12" height="12" rx="3" fill="#ebedf0"/><rect x="48" y="133" width="12" height="12" rx="3" fill="#ebedf0"/><rect x="63" y="133" width="12" height="12" rx="3" fill="#ebedf0"/><rect x="78" y="133" width="12" height="12" rx="3" fill="#ebedf0"/><rect x="93" y="133" width="12" height="12" rx="3" fill="#40c463"/><rect x="108" y="133" width="12" height="12" rx="3" fill="#ebedf0"/><rect x="123" y="133" width="12" height="12" rx="3" fill="#ebedf0"/><rect x="138" y="133" width="12" height="12" rx="3" fill="#ebedf0"/><rect x="153" y="133" width="12" height="12" rx="3" fill="#ebedf0"/><rect x="168" y="133" width="12" height="12" rx="3" fill="#ebedf0"/><rect x="183" y="133" width="12" height="12" rx="3" fill="#ebedf0"/><rect x="198" y="133" width="12" height="12" rx="3" fill="#ebedf0"/><rect x="213" y="133" width="12" height="12" rx="3" fill="#ebedf0"/><rect x="228" y="133" width="12" height="12" rx="3" fill="#ebedf0"/><rect x="243" y="133" width="12" height="12" rx="3" fill="#ebedf0"/><rect x="258" y="133" width="12" height="12" rx="3" fill="#ebedf0"/><rect x="273" y="133" width="12" height="12" rx="3" fill="#ebedf0"/><rect x="288" y="133" width="12" height="12" rx="3" fill="#ebedf0"/><rect x="303" y="133" width="12" height="12" rx="3" fill="#ebedf0"/><rect x="318" y="133" width="12" height="12" rx="3" fill="#ebedf0"/><rect x="333" y="133" width="12" height="12" rx="3" fill="#ebedf0"/><rect x="348" y="133" width="12" height="12" rx="3" fill="#ebedf0"/><rect x="363" y="133" width="12" height="12" rx="3" fill="#ebedf0"/><rect x="378" y="133" width="12" height="12" rx="3" fill="#ebedf0"/><rect x="393" y="133" width="12" height="12" rx="3" fill="#ebedf0"/><rect x="408" y="133" width="12" height="12" rx="3" fill="#ebedf0"/><rect x="423" y="133" width="12" height="12" rx="3" fill="#ebedf0"/><rect x="438" y="133" width="12" height="12" rx="3" fill="#ebedf0"/><rect x="453" y="133" width="12" height="12" rx="3" fill="#ebedf0"/><rect x="468" y="133" width="12" height="12" rx="3" fill="#ebedf0"/><rect x="483" y="133" width="12" height="12" rx="3" fill="#ebedf0"/><rect x="498" y="133" width="12" height="12" rx="3" fill="#ebedf0"/><rect x="513" y="133" width="12" height="12" rx="3" fill="#ebedf0"/><rect x="528" y="133" width="12" height="12" rx="3" fill="#ebedf0"/><rect x="543" y="133" width="12" height="12" rx="3" fill="#ebedf0"/><rect x="558" y="133" width="12" height="12" rx="3" fill="#ebedf0"/><rect x="573" y="133" width="12" height="12" rx="3" fill="#ebedf0"/><rect x="588" y="133" width="12" height="12" rx="3" fill="#ebedf0"/><rect x="603" y="133" width="12" height="12" rx="3" fill="#ebedf0"/><rect x="618" y="133" width="12" height="12" rx="3" fill="#ebedf0"/><rect x="633" y="133" width="12" height="12" rx="3" fill="#ebedf0"/><rect x="648" y="133" width="12" height="12" rx="3" fill="#ebedf0"/><rect x="663" y="133" width="12" height="12" rx="3" fill="#ebedf0"/><rect x="678" y="133" width="12" height="12" rx="3" fill="#ebedf0"/><rect x="693" y="133" width="12" height="12" rx="3" fill="#ebedf0"/><rect x="708" y="133" width="12" height="12" rx="3" fill="#ebedf0"/><rect x="723" y="133" width="12" height="12" rx="3" fill="#ebedf0"/><rect x="738" y="133" width="12" height="12" rx="3" fill="#ebedf0"/><rect x="753" y="133" width="12" height="12" rx="3" fill="#ebedf0"/><rect x="768" y="133" width="12" height="12" rx="3" fill="#9be9a8"/><rect x="783" y="133" width="12" height="12" rx="3" fill="#ebedf0"/><rect x="798" y="133" width="12" height="12" rx="3" fill="#ebedf0"/><rect x="18" y="148" width="12" height="12" rx="3" fill="#ebedf0"/><rect x="33" y="148" width="12" height="12" rx="3" fill="#ebedf0"/><rect x="48" y="148" width="12" height="12" rx="3" fill="#ebedf0"/><rect x="63" y="148" width="12" height="12" rx="3" fill="#ebedf0"/><rect x="78" y="148" width="12" height="12" rx="3" fill="#ebedf0"/><rect x="93" y="148" width="12" height="12" rx="3" fill="#30a14e"/><rect x="108" y="148" width="12" height="12" rx="3" fill="#ebedf0"/><rect x="123" y="148" width="12" height="12" rx="3" fill="#ebedf0"/><rect x="138" y="148" width="12" height="12" rx="3" fill="#ebedf0"/><rect x="153" y="148" width="12" height="12" rx="3" fill="#ebedf0"/><rect x="168" y="148" width="12" height="12" rx="3" fill="#ebedf0"/><rect x="183" y="148" width="12" height="12" rx="3" fill="#ebedf0"/><rect x="198" y="148" width="12" height="12" rx="3" fill="#ebedf0"/><rect x="213" y="148" width="12" height="12" rx="3" fill="#ebedf0"/><rect x="228" y="148" width="12" height="12" rx="3" fill="#ebedf0"/><rect x="243" y="148" width="12" height="12" rx="3" fill="#ebedf0"/><rect x="258" y="148" width="12" height="12" rx="3" fill="#ebedf0"/><rect x="273" y="148" width="12" height="12" rx="3" fill="#ebedf0"/><rect x="288" y="148" width="12" height="12" rx="3" fill="#ebedf0"/><rect x="303" y="148" width="12" height="12" rx="3" fill="#ebedf0"/><rect x="318" y="148" width="12" height="12" rx="3" fill="#ebedf0"/><rect x="333" y="148" width="12" height="12" rx="3" fill="#ebedf0"/><rect x="348" y="148" width="12" height="12" rx="3" fill="#ebedf0"/><rect x="363" y="148" width="12" height="12" rx="3" fill="#ebedf0"/><rect x="378" y="148" width="12" height="12" rx="3" fill="#ebedf0"/><rect x="393" y="148" width="12" height="12" rx="3" fill="#ebedf0"/><rect x="408" y="148" width="12" height="12" rx="3" fill="#ebedf0"/><rect x="423" y="148" width="12" height="12" rx="3" fill="#ebedf0"/><rect x="438" y="148" width="12" height="12" rx="3" fill="#ebedf0"/><rect x="453" y="148" width="12" height="12" rx="3" fill="#ebedf0"/><rect x="468" y="148" width="12" height="12" rx="3" fill="#ebedf0"/><rect x="483" y="148" width="12" height="12" rx="3" fill="#ebedf0"/><rect x="498" y="148" width="12" height="12" rx="3" fill="#ebedf0"/><rect x="513" y="148" width="12" height="12" rx="3" fill="#ebedf0"/><rect x="528" y="148" width="12" height="12" rx="3" fill="#ebedf0"/><rect x="543" y="148" width="12" height="12" rx="3" fill="#ebedf0"/><rect x="558" y="148" width="12" height="12" rx="3" fill="#ebedf0"/><rect x="573" y="148" width="12" height="12" rx="3" fill="#ebedf0"/><rect x="588" y="148" width="12" height="12" rx="3" fill="#ebedf0"/><rect x="603" y="148" width="12" height="12" rx="3" fill="#ebedf0"/><rect x="618" y="148" width="12" height="12" rx="3" fill="#ebedf0"/><rect x="633" y="148" width="12" height="12" rx="3" fill="#ebedf0"/><rect x="648" y="148" width="12" height="12" rx="3" fill="#ebedf0"/><rect x="663" y="148" width="12" height="12" rx="3" fill="#ebedf0"/><rect x="678" y="148" width="12" height="12" rx="3" fill="#ebedf0"/><rect x="693" y="148" width="12" height="12" rx="3" fill="#ebedf0"/><rect x="708" y="148" width="12" height="12" rx="3" fill="#ebedf0"/><rect x="723" y="148" width="12" height="12" rx="3" fill="#ebedf0"/><rect x="738" y="148" width="12" height="12" rx="3" fill="#ebedf0"/><rect x="753" y="148" width="12" height="12" rx="3" fill="#ebedf0"/><rect x="768" y="148" width="12" height="12" rx="3" fill="#ebedf0"/><rect x="783" y="148" width="12" height="12" rx="3" fill="#ebedf0"/><rect x="798" y="148" width="12" height="12" rx="3" fill="#ebedf0"/></g><line x1="272" y1="54" x2="272" y2="164" stroke="#d0d7de" stroke-width="1"/><text x="18" y="48" fill="#24292f" font-family="system-ui,Segoe UI,Arial" font-size="10" opacity="0.9">BREAKOUT</text><text x="288" y="48" fill="#24292f" font-family="system-ui,Segoe UI,Arial" font-size="10" opacity="0.9">PAC-MAN</text><g clip-path="url(#board-clip)"><rect x="34.2" y="59.2" width="9.6" height="9.6" rx="2" fill="#2da44e" fill-opacity="0.18" stroke="#1a7f37" stroke-opacity="0.55" stroke-width="1"/><rect x="49.2" y="59.2" width="9.6" height="9.6" rx="2" fill="#2da44e" fill-opacity="0.18" stroke="#1a7f37" stroke-opacity="0.55" stroke-width="1"/><rect x="64.2" y="59.2" width="9.6" height="9.6" rx="2" fill="#2da44e" fill-opacity="0.18" stroke="#1a7f37" stroke-opacity="0.55" stroke-width="1"/><rect x="79.2" y="59.2" width="9.6" height="9.6" rx="2" fill="#2da44e" fill-opacity="0.18" stroke="#1a7f37" stroke-opacity="0.55" stroke-width="1"/><rect x="109.2" y="59.2" width="9.6" height="9.6" rx="2" fill="#2da44e" fill-opacity="0.18" stroke="#1a7f37" stroke-opacity="0.55" stroke-width="1"/><rect x="124.2" y="59.2" width="9.6" height="9.6" rx="2" fill="#2da44e" fill-opacity="0.18" stroke="#1a7f37" stroke-opacity="0.55" stroke-width="1"/><rect x="139.2" y="59.2" width="9.6" height="9.6" rx="2" fill="#2da44e" fill-opacity="0.18" stroke="#1a7f37" stroke-opacity="0.55" stroke-width="1"/><rect x="154.2" y="59.2" width="9.6" height="9.6" rx="2" fill="#2da44e" fill-opacity="0.18" stroke="#1a7f37" stroke-opacity="0.55" stroke-width="1"/><rect x="184.2" y="59.2" width="9.6" height="9.6" rx="2" fill="#2da44e" fill-opacity="0.18" stroke="#1a7f37" stroke-opacity="0.55" stroke-width="1"/><rect x="199.2" y="59.2" width="9.6" height="9.6" rx="2" fill="#2da44e" fill-opacity="0.18" stroke="#1a7f37" stroke-opacity="0.55" stroke-width="1"/><rect x="214.2" y="59.2" width="9.6" height="9.6" rx="2" fill="#2da44e" fill-opacity="0.18" stroke="#1a7f37" stroke-opacity="0.55" stroke-width="1"/><rect x="229.2" y="59.2" width="9.6" height="9.6" rx="2" fill="#2da44e" fill-opacity="0.18" stroke="#1a7f37" stroke-opacity="0.55" stroke-width="1"/><rect x="34.2" y="74.2" width="9.6" height="9.6" rx="2" fill="#2da44e" fill-opacity="0.18" stroke="#1a7f37" stroke-opacity="0.55" stroke-width="1"/><rect x="49.2" y="74.2" width="9.6" height="9.6" rx="2" fill="#2da44e" fill-opacity="0.18" stroke="#1a7f37" stroke-opacity="0.55" stroke-width="1"/><rect x="64.2" y="74.2" width="9.6" height="9.6" rx="2" fill="#2da44e" fill-opacity="0.18" stroke="#1a7f37" stroke-opacity="0.55" stroke-width="1"/><rect x="94.2" y="74.2" width="9.6" height="9.6" rx="2" fill="#2da44e" fill-opacity="0.18" stroke="#1a7f37" stroke-opacity="0.55" stroke-width="1"/><rect x="109.2" y="74.2" width="9.6" height="9.6" rx="2" fill="#2da44e" fill-opacity="0.18" stroke="#1a7f37" stroke-opacity="0.55" stroke-width="1"/><rect x="124.2" y="74.2" width="9.6" height="9.6" rx="2" fill="#2da44e" fill-opacity="0.18" stroke="#1a7f37" stroke-opacity="0.55" stroke-width="1"/><rect x="139.2" y="74.2" width="9.6" height="9.6" rx="2" fill="#2da44e" fill-opacity="0.18" stroke="#1a7f37" stroke-opacity="0.55" stroke-width="1"/><rect x="169.2" y="74.2" width="9.6" height="9.6" rx="2" fill="#2da44e" fill-opacity="0.18" stroke="#1a7f37" stroke-opacity="0.55" stroke-width="1"/><rect x="184.2" y="74.2" width="9.6" height="9.6" rx="2" fill="#2da44e" fill-opacity="0.18" stroke="#1a7f37" stroke-opacity="0.55" stroke-width="1"/><rect x="199.2" y="74.2" width="9.6" height="9.6" rx="2" fill="#2da44e" fill-opacity="0.18" stroke="#1a7f37" stroke-opacity="0.55" stroke-width="1"/><rect x="214.2" y="74.2" width="9.6" height="9.6" rx="2" fill="#2da44e" fill-opacity="0.18" stroke="#1a7f37" stroke-opacity="0.55" stroke-width="1"/><rect x="34.2" y="89.2" width="9.6" height="9.6" rx="2" fill="#2da44e" fill-opacity="0.18" stroke="#1a7f37" stroke-opacity="0.55" stroke-width="1"/><rect x="49.2" y="89.2" width="9.6" height="9.6" rx="2" fill="#2da44e" fill-opacity="0.18" stroke="#1a7f37" stroke-opacity="0.55" stroke-width="1"/><rect x="79.2" y="89.2" width="9.6" height="9.6" rx="2" fill="#2da44e" fill-opacity="0.18" stroke="#1a7f37" stroke-opacity="0.55" stroke-width="1"/><rect x="94.2" y="89.2" width="9.6" height="9.6" rx="2" fill="#2da44e" fill-opacity="0.18" stroke="#1a7f37" stroke-opacity="0.55" stroke-width="1"/><rect x="109.2" y="89.2" width="9.6" height="9.6" rx="2" fill="#2da44e" fill-opacity="0.18" stroke="#1a7f37" stroke-opacity="0.55" stroke-width="1"/><rect x="124.2" y="89.2" width="9.6" height="9.6" rx="2" fill="#2da44e" fill-opacity="0.18" stroke="#1a7f37" stroke-opacity="0.55" stroke-width="1"/><rect x="154.2" y="89.2" width="9.6" height="9.6" rx="2" fill="#2da44e" fill-opacity="0.18" stroke="#1a7f37" stroke-opacity="0.55" stroke-width="1"/><rect x="169.2" y="89.2" width="9.6" height="9.6" rx="2" fill="#2da44e" fill-opacity="0.18" stroke="#1a7f37" stroke-opacity="0.55" stroke-width="1"/><rect x="184.2" y="89.2" width="9.6" height="9.6" rx="2" fill="#2da44e" fill-opacity="0.18" stroke="#1a7f37" stroke-opacity="0.55" stroke-width="1"/><rect x="199.2" y="89.2" width="9.6" height="9.6" rx="2" fill="#2da44e" fill-opacity="0.18" stroke="#1a7f37" stroke-opacity="0.55" stroke-width="1"/><rect x="229.2" y="89.2" width="9.6" height="9.6" rx="2" fill="#2da44e" fill-opacity="0.18" stroke="#1a7f37" stroke-opacity="0.55" stroke-width="1"/><rect x="34.2" y="104.2" width="9.6" height="9.6" rx="2" fill="#2da44e" fill-opacity="0.18" stroke="#1a7f37" stroke-opacity="0.55" stroke-width="1"/><rect x="64.2" y="104.2" width="9.6" height="9.6" rx="2" fill="#2da44e" fill-opacity="0.18" stroke="#1a7f37" stroke-opacity="0.55" stroke-width="1"/><rect x="79.2" y="104.2" width="9.6" height="9.6" rx="2" fill="#2da44e" fill-opacity="0.18" stroke="#1a7f37" stroke-opacity="0.55" stroke-width="1"/><rect x="94.2" y="104.2" width="9.6" height="9.6" rx="2" fill="#2da44e" fill-opacity="0.18" stroke="#1a7f37" stroke-opacity="0.55" stroke-width="1"/><rect x="109.2" y="104.2" width="9.6" height="9.6" rx="2" fill="#2da44e" fill-opacity="0.18" stroke="#1a7f37" stroke-opacity="0.55" stroke-width="1"/><rect x="139.2" y="104.2" width="9.6" height="9.6" rx="2" fill="#2da44e" fill-opacity="0.18" stroke="#1a7f37" stroke-opacity="0.55" stroke-width="1"/><rect x="154.2" y="104.2" width="9.6" height="9.6" rx="2" fill="#2da44e" fill-opacity="0.18" stroke="#1a7f37" stroke-opacity="0.55" stroke-width="1"/><rect x="169.2" y="104.2" width="9.6" height="9.6" rx="2" fill="#2da44e" fill-opacity="0.18" stroke="#1a7f37" stroke-opacity="0.55" stroke-width="1"/><rect x="184.2" y="104.2" width="9.6" height="9.6" rx="2" fill="#2da44e" fill-opacity="0.18" stroke="#1a7f37" stroke-opacity="0.55" stroke-width="1"/><rect x="214.2" y="104.2" width="9.6" height="9.6" rx="2" fill="#2da44e" fill-opacity="0.18" stroke="#1a7f37" stroke-opacity="0.55" stroke-width="1"/><rect x="229.2" y="104.2" width="9.6" height="9.6" rx="2" fill="#2da44e" fill-opacity="0.18" stroke="#1a7f37" stroke-opacity="0.55" stroke-width="1"/></g>
    <rect x="33.0" y="151.4" width="33.0" height="5.2" rx="2.6" fill="#1f6feb">
      <animate attributeName="x" values="33.0;63.0;108.0;183.0;138.0;78.0;48.0" dur="5.8s" repeatCount="indefinite"/>
    </rect>
    
    <g>
      <circle cx="0" cy="0" r="5.2" fill="#2f81f7">
        <animateMotion dur="5.8s" repeatCount="indefinite" path="M 39.0,139.0 L 69.0,109.0 L 114.0,79.0 L 159.0,109.0 L 204.0,79.0 L 234.0,124.0 L 189.0,139.0 L 144.0,94.0 L 99.0,124.0 L 54.0,154.0 L 84.0,139.0"/>
      </circle>
    </g>
    <path d="M 309.0,79.0 L 369.0,79.0 L 369.0,124.0 L 429.0,124.0 L 429.0,94.0 L 504.0,94.0 L 504.0,139.0 L 579.0,139.0 L 579.0,79.0 L 654.0,79.0 L 654.0,109.0 L 729.0,109.0 L 729.0,154.0 L 789.0,154.0" stroke="#57606a" stroke-width="2.2" stroke-linecap="round" stroke-linejoin="round" fill="none" opacity="0.9"/><g><circle cx="369.0" cy="79.0" r="1.7" fill="#57606a" opacity="0.85"/><circle cx="369.0" cy="124.0" r="1.7" fill="#57606a" opacity="0.85"/><circle cx="429.0" cy="124.0" r="1.7" fill="#57606a" opacity="0.85"/><circle cx="429.0" cy="94.0" r="1.7" fill="#57606a" opacity="0.85"/><circle cx="504.0" cy="94.0" r="1.7" fill="#57606a" opacity="0.85"/><circle cx="504.0" cy="139.0" r="1.7" fill="#57606a" opacity="0.85"/><circle cx="579.0" cy="139.0" r="1.7" fill="#57606a" opacity="0.85"/><circle cx="579.0" cy="79.0" r="1.7" fill="#57606a" opacity="0.85"/><circle cx="654.0" cy="79.0" r="1.7" fill="#57606a" opacity="0.85"/><circle cx="654.0" cy="109.0" r="1.7" fill="#57606a" opacity="0.85"/><circle cx="729.0" cy="109.0" r="1.7" fill="#57606a" opacity="0.85"/><circle cx="729.0" cy="154.0" r="1.7" fill="#57606a" opacity="0.85"/></g>
    <g>
      
    <g transform="translate(0,0)">
      <circle cx="0" cy="0" r="5.6" fill="#bf8700"/>
      <polygon points="0,0 5.8,-2.7 5.8,2.7" fill="#ffffff">
        <animateTransform
          attributeName="transform"
          attributeType="XML"
          type="rotate"
          values="0 0 0;18 0 0;0 0 0;-18 0 0;0 0 0"
          dur="0.45s"
          repeatCount="indefinite"/>
      </polygon>
    </g>
    
      <animateMotion dur="11s" repeatCount="indefinite" path="M 309.0,79.0 L 369.0,79.0 L 369.0,124.0 L 429.0,124.0 L 429.0,94.0 L 504.0,94.0 L 504.0,139.0 L 579.0,139.0 L 579.0,79.0 L 654.0,79.0 L 654.0,109.0 L 729.0,109.0 L 729.0,154.0 L 789.0,154.0" rotate="auto"/>
    </g>
    
    <g>
      
    <g transform="translate(-6,-6)">
      <path d="M 6 0
               C 2.7 0 0 2.7 0 6
               L 0 11
               L 2 9
               L 4 11
               L 6 9
               L 8 11
               L 10 9
               L 12 11
               L 12 6
               C 12 2.7 9.3 0 6 0 Z"
            fill="#cf222e"/>
      <circle cx="4.2" cy="5" r="1.3" fill="white"/>
      <circle cx="7.8" cy="5" r="1.3" fill="white"/>
      <circle cx="4.5" cy="5.2" r="0.55" fill="#111"/>
      <circle cx="8.1" cy="5.2" r="0.55" fill="#111"/>
    </g>
    
      <animateMotion dur="11s" begin="-1.5s" repeatCount="indefinite" path="M 309.0,79.0 L 369.0,79.0 L 369.0,124.0 L 429.0,124.0 L 429.0,94.0 L 504.0,94.0 L 504.0,139.0 L 579.0,139.0 L 579.0,79.0 L 654.0,79.0 L 654.0,109.0 L 729.0,109.0 L 729.0,154.0 L 789.0,154.0" rotate="auto"/>
    </g>
    
    <g>
      
    <g transform="translate(-6,-6)">
      <path d="M 6 0
               C 2.7 0 0 2.7 0 6
               L 0 11
               L 2 9
               L 4 11
               L 6 9
               L 8 11
               L 10 9
               L 12 11
               L 12 6
               C 12 2.7 9.3 0 6 0 Z"
            fill="#bf3989"/>
      <circle cx="4.2" cy="5" r="1.3" fill="white"/>
      <circle cx="7.8" cy="5" r="1.3" fill="white"/>
      <circle cx="4.5" cy="5.2" r="0.55" fill="#111"/>
      <circle cx="8.1" cy="5.2" r="0.55" fill="#111"/>
    </g>
    
      <animateMotion dur="11s" begin="-3.2s" repeatCount="indefinite" path="M 309.0,79.0 L 369.0,79.0 L 369.0,124.0 L 429.0,124.0 L 429.0,94.0 L 504.0,94.0 L 504.0,139.0 L 579.0,139.0 L 579.0,79.0 L 654.0,79.0 L 654.0,109.0 L 729.0,109.0 L 729.0,154.0 L 789.0,154.0" rotate="auto"/>
    </g>
    
    <g>
      
    <g transform="translate(-6,-6)">
      <path d="M 6 0
               C 2.7 0 0 2.7 0 6
               L 0 11
               L 2 9
               L 4 11
               L 6 9
               L 8 11
               L 10 9
               L 12 11
               L 12 6
               C 12 2.7 9.3 0 6 0 Z"
            fill="#0969da"/>
      <circle cx="4.2" cy="5" r="1.3" fill="white"/>
      <circle cx="7.8" cy="5" r="1.3" fill="white"/>
      <circle cx="4.5" cy="5.2" r="0.55" fill="#111"/>
      <circle cx="8.1" cy="5.2" r="0.55" fill="#111"/>
    </g>
    
      <animateMotion dur="11s" begin="-4.8s" repeatCount="indefinite" path="M 309.0,79.0 L 369.0,79.0 L 369.0,124.0 L 429.0,124.0 L 429.0,94.0 L 504.0,94.0 L 504.0,139.0 L 579.0,139.0 L 579.0,79.0 L 654.0,79.0 L 654.0,109.0 L 729.0,109.0 L 729.0,154.0 L 789.0,154.0" rotate="auto"/>
    </g>
    </svg>